<?xml version="1.0" encoding="utf-8"?>
<!-- Generator: Adobe Illustrator 22.0.0, SVG Export Plug-In . SVG Version: 6.00 Build 0)  -->
<svg version="1.1" id="图层_1" xmlns="http://www.w3.org/2000/svg" xmlns:xlink="http://www.w3.org/1999/xlink" x="0px" y="0px"
	 viewBox="0 0 200 200" style="enable-background:new 0 0 200 200;" xml:space="preserve">
<path d="M194.3,30.5L169.5,5.7c-7.6-7.6-19.5-7.6-27.1,0l-51,51c-7.6,7.6-7.6,19.5,0,27.1l7.4,7.4l24.5-24.5c2.9-2.9,7.1-2.9,10,0
	c2.9,2.9,2.9,7.1,0,10l-24.5,24.5l7.4,7.4c7.6,7.6,19.5,7.6,27.1,0l51-51C201.9,50,201.9,38.1,194.3,30.5z"/>
<path d="M5.7,169.5l24.8,24.8c7.6,7.6,19.5,7.6,27.1,0l51-51c7.6-7.6,7.6-19.5,0-27.1l-7.4-7.4l-24.5,24.5c-2.9,2.9-7.1,2.9-10,0
	c-2.9-2.9-2.9-7.1,0-10l24.5-24.5l-7.4-7.4c-7.6-7.6-19.5-7.6-27.1,0l-51,51C-1.9,150-1.9,161.9,5.7,169.5z"/>
</svg>
