<?xml version="1.0" encoding="utf-8"?>
<!-- Generator: Adobe Illustrator 22.0.0, SVG Export Plug-In . SVG Version: 6.00 Build 0)  -->
<svg version="1.1" id="图层_1" xmlns="http://www.w3.org/2000/svg" xmlns:xlink="http://www.w3.org/1999/xlink" x="0px" y="0px"
	 viewBox="0 0 200 200" style="enable-background:new 0 0 200 200;" xml:space="preserve">
<path d="M122.1,192.7c-0.4,0.8-1.2,1.4-2.4,1.8l-16,5.2c-2.9,0.9-4.4-0.6-3.5-3.4l5.3-15.7c0.4-1.2,1.1-2,1.9-2.3l50.5-49.4
	l14.7,14.3L122.1,192.7z M87.7,183.2l67.1-65.6c2-2,3.2-4.7,3.2-7.5V51h-36.6c-8.1,0-14.6-6.4-14.7-14.3V0H32.6
	C20.9,0,11.5,9.2,11.5,20.6v149.5c0,4.3,1.7,8.4,4.8,11.4c3.1,3,7.3,4.7,11.7,4.7l52.3,0C83.1,186.2,85.7,185.1,87.7,183.2z
	 M122.5,2.7l32.8,32c4.7,4.5,3.1,8.2-3.5,8.2H126c-6.6,0-11.9-5.2-11.9-11.6V6.1C114-0.3,117.8-1.8,122.5,2.7L122.5,2.7L122.5,2.7z
	 M40.8,78.8c0-4,3.3-7.2,7.3-7.2h73.3c4,0,7.3,3.2,7.3,7.2c0,4-3.3,7.2-7.3,7.2H48.1C44.1,85.9,40.8,82.7,40.8,78.8z M40.8,107.4
	c0-4,3.3-7.2,7.3-7.2h73.3c4,0,7.3,3.2,7.3,7.2c0,4-3.3,7.2-7.3,7.2H48.1C44.1,114.6,40.8,111.4,40.8,107.4z M161.4,125.9l8.5-8.3
	c2.1-2.1,5.6-2.1,7.8,0l7.3,7.1c2.1,2.1,2.1,5.5,0,7.6l-8.5,8.3L161.4,125.9L161.4,125.9L161.4,125.9z"/>
</svg>
