<?xml version="1.0" encoding="utf-8"?>
<!-- Generator: Adobe Illustrator 22.0.0, SVG Export Plug-In . SVG Version: 6.00 Build 0)  -->
<svg version="1.1" id="图层_1" xmlns="http://www.w3.org/2000/svg" xmlns:xlink="http://www.w3.org/1999/xlink" x="0px" y="0px"
	 viewBox="0 0 200 200" style="enable-background:new 0 0 200 200;" xml:space="preserve">
<g>
	<path d="M192.4,72.6L192.4,72.6c-4.2,0-7.6,3.4-7.6,7.6v98.5c0,3.3-2.7,6-6,6H21.3c-3.3,0-6-2.7-6-6V21.3c0-3.3,2.7-6,6-6h98.3
		c4.2,0,7.6-3.4,7.6-7.6S123.8,0,119.6,0H21.3C9.5,0,0,9.5,0,21.3v157.5C0,190.5,9.5,200,21.3,200h157.5c11.7,0,21.3-9.5,21.3-21.3
		V80.3C200,76,196.6,72.6,192.4,72.6z"/>
	<path d="M53.1,110.3L53.1,110.3l-9.3,36.6c-0.7,2.6,0.1,5.4,2,7.3c1.9,1.9,4.7,2.7,7.3,2l36.6-9.3c1.3-0.3,2.5-1,3.5-2L194.8,43.2
		c6.9-6.9,6.8-18.3-0.2-25.4L182.2,5.4c-7.1-7.1-18.4-7.2-25.4-0.2L55.1,106.8C54.2,107.8,53.5,109,53.1,110.3z"/>
</g>
</svg>
