<?xml version="1.0" encoding="utf-8"?>
<!-- Generator: Adobe Illustrator 22.0.0, SVG Export Plug-In . SVG Version: 6.00 Build 0)  -->
<svg version="1.1" id="图层_1" xmlns="http://www.w3.org/2000/svg" xmlns:xlink="http://www.w3.org/1999/xlink" x="0px" y="0px"
	 viewBox="0 0 200 200" style="enable-background:new 0 0 200 200;" xml:space="preserve">
<path d="M191.2,142.9h-12.6v-28.2c0-7.8-6.6-14.1-14.8-14.1h-56.9V71.4h20.2c4.9,0,8.9-4,8.9-8.9V8.9c0-4.9-4-8.9-8.9-8.9H73.6
	c-4.9,0-8.9,4-8.9,8.9v53.6c0,4.9,4,8.9,8.9,8.9h19.5v29.1H36.5c-8.2,0-14.8,6.3-14.8,14.1v28.2H8.9c-4.9,0-8.9,4-8.9,8.9v39.3
	c0,4.9,4,8.9,8.9,8.9h39.3c4.9,0,8.9-4,8.9-8.9v-39.3c0-4.9-4-8.9-8.9-8.9H35.5v-28.1c0.1-0.1,0.4-0.4,1-0.4H93v28.5H80.5
	c-4.9,0-8.9,4-8.9,8.9v39.3c0,4.9,4,8.9,8.9,8.9h39.3c4.9,0,8.9-4,8.9-8.9v-39.3c0-4.9-4-8.9-8.9-8.9h-12.9v-28.5h56.8
	c0.5,0,0.9,0.2,1,0.4v28.1h-12.8c-4.9,0-8.9,4-8.9,8.9v39.3c0,4.9,4,8.9,8.9,8.9h39.3c4.9,0,8.9-4,8.9-8.9v-39.3
	C200.1,146.9,196.1,142.9,191.2,142.9z"/>
</svg>
