<?xml version="1.0" encoding="utf-8"?>
<!-- Generator: Adobe Illustrator 22.0.0, SVG Export Plug-In . SVG Version: 6.00 Build 0)  -->
<svg version="1.1" id="图层_1" xmlns="http://www.w3.org/2000/svg" xmlns:xlink="http://www.w3.org/1999/xlink" x="0px" y="0px"
	 viewBox="0 0 200 200" style="enable-background:new 0 0 200 200;" xml:space="preserve">
<path d="M182,88.7l-66.4-66.4c-4-4.8-9.8-7.2-15.5-7.2c-5.8,0-11.5,2.4-15.6,7.3L19.6,88.8C9.7,98.9,16.9,116,31,116h4v45.8
	c0,13.2,10.8,24,24,24h31v-57.2c0-1.7,1.3-3,3-3h14c1.7,0,3,1.3,3,3v57.2h31c13.2,0,24-10.8,24-24V116h5.7
	C185,116,192.1,98.8,182,88.7z"/>
</svg>
