<?xml version="1.0" encoding="utf-8"?>
<!-- Generator: Adobe Illustrator 22.0.0, SVG Export Plug-In . SVG Version: 6.00 Build 0)  -->
<svg version="1.1" id="图层_1" xmlns="http://www.w3.org/2000/svg" xmlns:xlink="http://www.w3.org/1999/xlink" x="0px" y="0px"
	 viewBox="0 0 200 200" style="enable-background:new 0 0 200 200;" xml:space="preserve">
<path d="M173.3,17.5h-32.2c-1.9,13.9-13.3,24.7-27.8,24.7H86.8c-14.5,0-25.9-10.7-27.8-24.7H26.7c-7,0-12.7,5.7-12.7,12.7v157.2
	c0,7,5.7,12.7,12.7,12.7h146.6c7,0,12.7-5.7,12.7-12.7V30.1C186,23.2,180.3,17.5,173.3,17.5z M144.2,157.8H55.8
	c-5.1,0-8.8-3.8-8.8-8.8s3.8-8.8,8.8-8.8h88.5c5.1,0,8.8,3.8,8.8,8.8C152.5,154,148.6,157.8,144.2,157.8L144.2,157.8z M144.2,121.1
	H55.8c-5.1,0-8.8-3.8-8.8-8.8s3.8-8.8,8.8-8.8h88.5c5.1,0,8.8,3.8,8.8,8.8C152.5,117.3,148.6,121.1,144.2,121.1L144.2,121.1z
	 M144.2,85.1H55.8c-5.1,0-8.8-3.8-8.8-8.8s3.8-8.8,8.8-8.8h88.5c5.1,0,8.8,3.8,8.8,8.8C152.5,81.3,148.6,85.1,144.2,85.1L144.2,85.1
	z"/>
<path d="M113.4,29.9H86.6c-8.2,0-14.9-6.7-14.9-14.9C71.7,6.7,78.4,0,86.6,0h26.8c8.2,0,14.9,6.7,14.9,14.9
	C128.3,23.1,121.6,29.9,113.4,29.9z"/>
</svg>
