<?xml version="1.0" encoding="utf-8"?>
<!-- Generator: Adobe Illustrator 22.0.0, SVG Export Plug-In . SVG Version: 6.00 Build 0)  -->
<svg version="1.1" id="图层_1" xmlns="http://www.w3.org/2000/svg" xmlns:xlink="http://www.w3.org/1999/xlink" x="0px" y="0px"
	 viewBox="0 0 200 200" style="enable-background:new 0 0 200 200;" xml:space="preserve">
<path d="M45,51.3v-4.6c0-1.5,1.2-2.7,2.7-2.7h54.6c1.5,0,2.7,1.2,2.7,2.7v4.6c0,1.5-1.2,2.7-2.7,2.7H47.7C46.2,54,45,52.8,45,51.3z
	 M45,81.3v-4.6c0-1.5,1.2-2.7,2.7-2.7h54.6c1.5,0,2.7,1.2,2.7,2.7v4.6c0,1.5-1.2,2.7-2.7,2.7H47.7C46.2,84,45,82.8,45,81.3z
	 M45,111.3v-4.6c0-1.5,1.2-2.7,2.7-2.7h54.6c1.5,0,2.7,1.2,2.7,2.7v4.6c0,1.5-1.2,2.7-2.7,2.7H47.7C46.2,114,45,112.8,45,111.3z
	 M45,141.3v-4.6c0-1.5,1.2-2.7,2.7-2.7h54.6c1.5,0,2.7,1.2,2.7,2.7v4.6c0,1.5-1.2,2.7-2.7,2.7H47.7C46.2,144,45,142.8,45,141.3z
	 M190,184V69c0-2.8-2.2-5-5-5h-30c-2.8,0-5,2.2-5,5v115h-10V14c0-5.5-4.5-10-10-10H20c-5.5,0-10,4.5-10,10c0,0,0,0,0,0v170H4
	c-2.2,0-4,1.8-4,4v4c0,2.2,1.8,4,4,4h192c2.2,0,4-1.8,4-4v-4c0-2.2-1.8-4-4-4H190L190,184z"/>
</svg>
