<?xml version="1.0" encoding="utf-8"?>
<!-- Generator: Adobe Illustrator 22.0.0, SVG Export Plug-In . SVG Version: 6.00 Build 0)  -->
<svg version="1.1" id="图层_1" xmlns="http://www.w3.org/2000/svg" xmlns:xlink="http://www.w3.org/1999/xlink" x="0px" y="0px"
	 viewBox="0 0 200 200" style="enable-background:new 0 0 200 200;" xml:space="preserve">
<path d="M197.6,81c-0.5-3.7-2.9-7-7.1-7.9H190c-8.6-1.9-14.8-6.5-19.5-14.5c-4.3-7-5.7-15.9-2.9-23.8c1.4-3.3,0.5-7.5-2.9-10.3
	c-9-8.4-20-14.9-32.4-19.1c-3.3-1.4-7.1-0.5-10.5,2.8c-5.2,6.5-13.3,9.8-22.4,9.8c-8.1,0-15.7-3.7-22.4-10.3
	c-3.8-3.7-7.6-3.3-10.5-2.3c-12.4,5.1-22.8,11.2-31.9,18.7c-3.3,2.3-4.8,6.5-3.3,10.3c2.4,8.9,1.4,17.3-2.9,24.7
	c-3.8,6.5-11,11.7-19.5,14c-0.5,0-0.5,0-1,0.5c-2.9,1.4-4.8,3.7-6.2,7V81C0.5,88,0,94.1,0,100.1c0,6.1,0.5,13.1,1.9,18.7
	c0.5,3.7,2.9,7,7.1,7.9h0.5c8.6,1.9,14.8,6.5,19.5,14.5c4.3,7,5.7,15.9,2.9,23.8c-1.4,3.3-0.5,7.5,2.9,10.3c9,8.4,20,14.9,32.9,19.1
	c0.5,0,1,0.5,1.9,0.5H71c2.4,0,5.2-0.9,7.6-3.3c5.2-6.1,13.3-9.8,22.4-9.8c8.1,0,15.7,3.7,22.4,10.3c1.9,1.9,4.3,3.3,6.7,3.3
	c1,0,2.4,0,3.3-0.5c12.4-5.1,22.8-11.2,31.9-18.7c3.3-1.9,4.8-6.5,3.3-10.3c-2.4-8.9-1.4-17.3,2.9-24.7c3.8-6.5,11-11.7,19.5-14
	c0.5,0,0.5,0,1-0.5c2.9-1.4,4.8-3.7,6.2-7v-0.5c1.4-7,1.9-13.1,1.9-19.1C199.5,93.6,199.1,87.1,197.6,81L197.6,81z M99.6,132.3
	c-18.6,0-33.3-14.5-33.3-32.7S81,67,99.6,67s33.3,14.5,33.3,32.7S118.1,132.3,99.6,132.3z"/>
</svg>
