<?xml version="1.0" encoding="utf-8"?>
<!-- Generator: Adobe Illustrator 22.0.0, SVG Export Plug-In . SVG Version: 6.00 Build 0)  -->
<svg version="1.1" id="图层_1" xmlns="http://www.w3.org/2000/svg" xmlns:xlink="http://www.w3.org/1999/xlink" x="0px" y="0px"
	 viewBox="0 0 200 200" style="enable-background:new 0 0 200 200;" xml:space="preserve">
<path d="M180.7,145.3c0.7,2.6,0.6,5.4-0.3,8c-0.9,2.6-2.6,4.9-4.8,6.5c-2.5,1.8-5.5,2.8-8.5,2.7H32.9c-3.1,0-6.1-0.9-8.5-2.7
	c-2.2-1.6-3.9-3.9-4.8-6.5c-0.9-2.6-1-5.4-0.3-8c0.8-2.9,2.5-5.4,5-7.3l12.9-9.7c2.3-1.7,3.6-4.4,3.6-7.2V76.5
	c0-7.7,1.6-15.2,4.7-22.4c3-6.8,7.3-13,12.7-18.3c7.5-7.2,16.7-12.4,26.8-14.9v-6.3C84.9,6.6,91.7,0,100.1,0s15.1,6.6,15.1,14.7v6.3
	c2.7,0.7,5.4,1.6,8,2.7c7,2.8,13.4,7,18.8,12.3c5.4,5.3,9.7,11.4,12.7,18.3c3.1,7.1,4.7,14.6,4.7,22.4v44.6c0,2.8,1.3,5.4,3.6,7.2
	l12.9,9.7C178.2,139.9,179.9,142.3,180.7,145.3L180.7,145.3z M81.2,175.6V175h37.5v0.6c0,17.5-8.4,24.4-18.8,24.4
	S81.2,193.1,81.2,175.6z"/>
</svg>
