<?xml version="1.0" encoding="utf-8"?>
<!-- Generator: Adobe Illustrator 22.0.0, SVG Export Plug-In . SVG Version: 6.00 Build 0)  -->
<svg version="1.1" id="图层_1" xmlns="http://www.w3.org/2000/svg" xmlns:xlink="http://www.w3.org/1999/xlink" x="0px" y="0px"
	 viewBox="0 0 200 200" style="enable-background:new 0 0 200 200;" xml:space="preserve">
<path d="M72.2,144c0-6.9,1.1-13.5,3.1-19.7c2-6.3,5-12.1,8.7-17.4c3.8-5.3,8.1-9.9,13.3-14c5-4.1,10.7-7.3,16.8-9.8
	c0.4-0.9,0.7-1.9,1.2-3.3l0.9-2.5c0.1-0.8,0.4-1.6,0.7-2.2c1.2-0.4,2.3-1.1,3.4-2c0.9-0.8,1.7-2,2.6-3.4c0.7-1.5,1.2-3.6,1.5-6.1
	c0.1-1.9,0.1-3.4-0.1-4.8c-0.4-1.3-0.7-2.4-1.2-3.2c-0.5-0.9-1.2-1.7-2-2.3c0-4.9-0.4-9.7-0.9-14.3c-0.7-4.1-1.6-8.5-3.1-13
	c-1.4-4.5-3.7-8.7-6.8-12.4c-1.4-1.6-3.2-3.3-5.5-4.9c-2.3-1.6-5-3-7.9-4.4c-3-1.2-6.2-2.3-9.6-3C83.7,0.4,80.3,0,76.8,0
	c-2.7,0-5.5,0.3-8.5,0.7c-3,0.4-6,1.2-8.9,2.4c-3,1.2-6,2.9-8.7,4.9c-2.7,2-5.3,4.7-7.7,7.9c-2.4,3.4-4.3,7.3-5.5,11.7
	c-1.2,4.4-2,8.5-2.6,12.2c-0.4,4.5-0.7,8.9-0.7,13.4c-1.1,1.2-1.7,2.4-2.3,3.7c-0.5,1.3-0.9,2.8-1.1,4.4c-0.1,1.6,0.1,3.4,0.7,5.4
	c0.5,2.1,1.4,3.6,2.2,4.7c0.8,1.1,1.6,2,2.3,2.5c0.9,0.5,1.7,0.9,2.6,1.2c0.5,1.9,1.2,3.7,1.7,5.4c0.5,1.6,1.2,3,2,4.5
	c0.7,1.5,1.6,2.6,2.6,3.4c2,1.7,3.9,3.3,5.5,4.9s2.6,3.9,2.8,6.5c0.1,2,0.1,3.6,0.1,5.2c0,1.5-0.4,2.9-0.9,4.4
	c-0.7,1.5-1.6,2.9-3,4.4c-1.4,1.5-3.2,2.9-5.8,4.5c-2,1.3-4.5,2.4-7,3.3c-2.6,0.9-5.3,1.7-8,2.5c-2.8,0.8-5.5,1.6-8.1,2.4
	c-2.6,0.9-5,2-7.2,3.3c-2.2,1.5-4.1,3-5.5,4.9c-1.5,1.9-2.4,4.2-3,7.1c-1.2,7.7-1.5,13.9-0.8,18.8c0.7,4.9,1.6,7.8,3,8.7
	c0.8,0.5,2.6,1.2,5.3,1.7c2.7,0.5,6.1,1.2,10,1.7c4.1,0.7,8.4,1.2,13.3,1.7c4.8,0.5,9.8,1.1,14.6,1.5c5,0.4,9.8,0.7,14.4,0.9
	c4.6,0.3,8.7,0.4,12.2,0.4h4.8c-2.8-4.9-5.2-10.2-6.8-15.8C73.1,155.9,72.2,150.1,72.2,144z"/>
<g>
	<path d="M191.9,122.8c-3-6.8-7-12.6-12.2-17.7c-5.1-5-11.1-9-18-11.9c-6.9-2.9-14.2-4.4-22.1-4.4c-7.8,0-15.3,1.5-22.2,4.4
		c-6.9,2.9-12.9,6.9-18,11.9c-5.1,5-9.2,11-12.2,17.7c-3,6.8-4.5,13.9-4.5,21.6c0,7.7,1.5,14.8,4.5,21.6c3,6.8,7,12.6,12.2,17.7
		c5.1,5,11.1,9,18,11.9c6.9,2.9,14.4,4.4,22.2,4.4c7.8,0,15.1-1.5,22.1-4.4c6.9-2.9,12.9-6.9,18-11.9c5.2-5,9.2-11,12.2-17.7
		c3-6.8,4.5-13.9,4.5-21.6C196.4,136.8,194.9,129.6,191.9,122.8z M163.8,150.5L163.8,150.5c0.8,1.2,1.5,2.1,2.3,2.7
		c0.9,0.8,1.2,2,0.6,3.1l-3.4,5.9c-0.6,1.1-1.9,1.5-3,1.1c-2.2-0.8-4.5-0.9-6.9-0.3c-3,0.8-5.3,2.5-6.7,5.2c-0.7,1-1.1,2.2-1.3,3.4
		c-0.2,1.2-1.2,2-2.4,2h-6.8c-1.2,0-2.2-0.8-2.4-2c-0.4-2.1-1.4-4-3-5.7c-2.1-2.2-4.7-3.3-7.8-3.3c-1.5,0-2.8,0.2-3.8,0.6
		c-1.1,0.4-2.4,0-3-1.1l-3.6-6c-0.6-1-0.4-2.3,0.4-3.1c1.7-1.5,2.9-3.4,3.5-5.7c0.8-2.9,0.5-5.7-0.9-8.4c-0.1-0.1-0.1-0.2-0.2-0.3
		c-0.6-0.9-1.4-1.8-2.2-2.5c-0.9-0.8-1.2-2.1-0.5-3.2l3.6-6.1c0.6-1,1.8-1.5,2.9-1.1c2.2,0.8,4.4,0.9,6.8,0.3c3-0.7,5.3-2.4,6.7-5.1
		c0.7-0.9,1.1-2.1,1.4-3.5c0.2-1.2,1.2-2.1,2.4-2.1h6.9c1.2,0,2.2,0.9,2.4,2c0.4,2.3,1.3,4.3,3,6c2.1,2.2,4.7,3.4,7.8,3.4
		c1.5,0,2.8-0.2,3.8-0.6c1.1-0.4,2.3,0.1,2.9,1.1l3.5,6c0.6,1,0.4,2.3-0.5,3c-1.7,1.5-2.9,3.4-3.4,5.7
		C162.2,145,162.5,147.8,163.8,150.5z"/>
	<path d="M148.8,134.3c-3.2-2.9-7.1-3.9-11.5-3.1c-4.6,0.7-7.9,3.1-10.1,7.3c-2.4,4.8-2.3,9.5,0.5,13.9c2.8,4.4,6.8,6.7,12,6.7l0,0
		c3.9,0,7.2-1.4,9.9-4.1c2.7-2.8,4-6,4-9.8C153.7,140.8,152,137.2,148.8,134.3z"/>
</g>
</svg>
